<svg xmlns="http://www.w3.org/2000/svg" enable-background="new 0 0 55 55" viewBox="0 0 55 55"><path d="M42.2,24.27c-0.55,0-1,0.45-1,1v22.96c0,1.25-1.02,2.26-2.27,2.26H6.77c-1.25,0-2.26-1.02-2.26-2.26V16.07
		c0-1.25,1.02-2.26,2.26-2.26h22.95c0.55,0,1-0.45,1-1s-0.45-1-1-1H6.77c-2.35,0-4.26,1.91-4.26,4.26v32.17
		c0,2.35,1.91,4.26,4.26,4.26h32.17c2.35,0,4.27-1.91,4.27-4.26V25.27C43.2,24.72,42.75,24.27,42.2,24.27z"/><path d="M51.64,6.02l-2.66-2.66c-1.14-1.14-3-1.14-4.15,0l-16.4,16.4c-0.11,0.11-0.2,0.25-0.24,0.4l-2.59,7.98
		c-0.12,0.36-0.02,0.75,0.24,1.02c0.19,0.19,0.45,0.29,0.71,0.29c0.1,0,0.21-0.02,0.31-0.05l7.98-2.59c0.15-0.05,0.29-0.13,0.4-0.24
		l16.4-16.4C52.79,9.02,52.79,7.16,51.64,6.02z M34.54,24.44l-3.98-3.98L42.48,8.54l3.98,3.98L34.54,24.44z M29.59,22.32l3.08,3.08
		l-4.56,1.48L29.59,22.32z M50.23,8.75l-2.35,2.35L43.9,7.12l2.35-2.35c0.36-0.36,0.96-0.36,1.32,0l2.66,2.66
		C50.59,7.79,50.59,8.38,50.23,8.75z"/></svg>