<svg xmlns="http://www.w3.org/2000/svg" xmlns:xlink="http://www.w3.org/1999/xlink" width="300" zoomAndPan="magnify" viewBox="0 0 224.87999 225" height="300" preserveAspectRatio="xMidYMid meet" version="1.0"><defs><g/><clipPath id="id1"><path d="M 0 3 L 224.761719 3 L 224.761719 87 L 0 87 Z M 0 3 " clip-rule="nonzero"/></clipPath></defs><g clip-path="url(#id1)"><path stroke-linecap="butt" transform="matrix(0.779173, 0, 0, 0.779173, -4.30928, 11.041578)" fill="none" stroke-linejoin="miter" d="M 77.537048 11.377031 C 81.036352 11.377031 82.786005 12.805831 82.786005 15.668442 C 82.786005 16.570842 82.600511 17.688814 82.224512 19.027374 L 79.91838 26.767956 C 79.216513 29.114194 78.354221 30.773607 77.326488 31.736166 C 76.318808 32.683685 74.854916 33.159952 72.944837 33.159952 C 71.355611 33.159952 70.127346 32.748859 69.260039 31.921659 C 68.40276 31.084433 67.595614 29.775954 66.833587 28.006248 L 65.224308 24.085824 C 64.707935 22.872598 64.166496 22.050412 63.589963 21.614252 C 63.01343 21.163052 62.121057 20.937452 60.907831 20.937452 L 58.717006 20.937452 L 46.58976 63.641 C 46.399253 64.4682 46.309013 65.195133 46.309013 65.831826 C 46.309013 66.593852 46.419306 67.235558 46.63488 67.746918 C 46.850453 68.243238 47.186346 68.779664 47.637546 69.356197 C 48.214079 70.258596 48.499838 70.995556 48.499838 71.572089 C 48.499838 71.697422 48.439678 72.013262 48.314345 72.529635 C 47.988479 73.351821 47.356799 73.958434 46.42432 74.344461 C 45.50688 74.72046 44.193388 74.905954 42.483842 74.905954 L 20.024122 74.905954 C 18.685563 74.905954 17.652817 74.69038 16.920871 74.254221 C 16.188924 73.803021 15.827965 73.156301 15.827965 72.319075 C 15.827965 71.943075 15.918205 71.562062 16.103698 71.176036 C 16.369404 70.599503 16.675217 70.17337 17.016124 69.892623 C 17.37207 69.596837 17.903483 69.230864 18.600336 68.794704 C 19.547856 68.223184 20.339962 67.581478 20.981668 66.884625 C 21.618361 66.182759 22.159801 65.104893 22.611001 63.641 L 34.648007 20.937452 L 32.457181 20.937452 C 31.038409 20.937452 29.890356 21.163052 29.002997 21.614252 C 28.115637 22.050412 27.158091 22.872598 26.135372 24.085824 L 22.987 28.006248 C 21.523108 29.715794 20.109349 31.00422 18.74071 31.876539 C 17.37207 32.733819 15.888125 33.159952 14.283859 33.159952 C 12.82498 33.159952 11.68194 32.778939 10.859754 32.016912 C 10.032555 31.254886 9.621462 30.2071 9.621462 28.868541 C 9.621462 28.231848 9.716715 27.529982 9.902208 26.767956 L 12.37378 18.069827 C 12.88514 16.280069 13.461673 14.926469 14.098366 14.00903 C 14.735059 13.07655 15.647485 12.409777 16.830631 12.003698 C 18.008763 11.587591 19.683216 11.377031 21.843961 11.377031 Z M 120.040062 9.953246 C 128.066404 9.953246 134.328054 11.848284 138.840051 15.643376 C 143.362075 19.423427 145.6281 24.87793 145.6281 32.016912 C 145.6281 35.390884 145.121754 39.020535 144.109061 42.905866 C 142.198983 50.029808 139.236104 56.075885 135.22544 61.054122 C 131.214776 66.012306 126.432059 69.76729 120.882302 72.319075 C 115.347585 74.865847 109.326575 76.144246 102.829299 76.144246 C 94.868131 76.144246 88.626534 74.254221 84.099497 70.47417 C 79.592513 66.679078 77.336515 61.214548 77.336515 54.080579 C 77.336515 50.831941 77.872941 47.107037 78.945794 42.905866 C 80.795712 35.832057 83.713471 29.8311 87.694055 24.902997 C 91.674639 19.959853 96.41725 16.234949 101.916873 13.733297 C 107.43655 11.211592 113.477613 9.953246 120.040062 9.953246 Z M 118.315477 19.303107 C 116.400385 19.303107 114.685826 20.07516 113.161773 21.614252 C 111.637721 23.138304 110.118682 25.634943 108.614683 29.099154 C 107.12071 32.568379 105.511431 37.386189 103.786845 43.562612 C 101.2501 52.48634 99.981728 58.637697 99.981728 62.011668 C 99.981728 63.981907 100.332661 65.420733 101.034527 66.323132 C 101.73138 67.210491 102.844339 67.651665 104.368392 67.651665 C 106.278471 67.651665 107.998043 66.874598 109.522095 65.320466 C 111.046148 63.751294 112.54012 61.249642 113.998999 57.810497 C 115.477932 54.376366 117.112277 49.623729 118.897023 43.562612 C 121.368595 34.774244 122.606888 28.602834 122.606888 25.04337 C 122.606888 23.007958 122.255954 21.544065 121.559101 20.656706 C 120.857235 19.754306 119.774356 19.303107 118.315477 19.303107 Z M 189.284181 11.377031 C 198.829562 11.377031 206.023691 13.21191 210.856542 16.881668 C 215.709445 20.531373 218.135897 25.895636 218.135897 32.974459 C 218.135897 36.46875 217.499204 40.514507 216.220805 45.101705 C 214.125233 52.48634 211.287688 58.346923 207.70817 62.683454 C 204.148706 67.009958 199.451215 70.15833 193.620712 72.133582 C 187.805249 74.103821 180.345413 75.061367 171.231179 75.001207 L 145.252101 74.905954 C 143.913541 74.905954 142.880795 74.69038 142.148849 74.254221 C 141.416903 73.803021 141.05093 73.186381 141.05093 72.409315 C 141.05093 72.038329 141.146183 71.627235 141.331676 71.176036 C 141.51717 70.599503 141.792903 70.18841 142.148849 69.937743 C 142.489756 69.69209 143.011142 69.341157 143.713008 68.889957 C 144.735728 68.313424 145.552901 67.676731 146.159513 66.974865 C 146.766126 66.278012 147.287513 65.165053 147.723673 63.641 L 159.384679 22.546731 C 159.635345 21.724545 159.755665 20.932439 159.755665 20.170413 C 159.755665 19.468547 159.650385 18.876974 159.429799 18.395694 C 159.214226 17.914414 158.908413 17.352921 158.522386 16.716228 C 157.945853 15.894042 157.660093 15.222256 157.660093 14.710896 C 157.660093 14.525403 157.720253 14.17447 157.845587 13.66311 C 158.111293 12.835911 158.667773 12.254364 159.525052 11.913458 C 160.377318 11.552498 161.700838 11.377031 163.490596 11.377031 Z M 191.755753 43.001119 C 193.420179 37.015203 194.252391 32.302672 194.252391 28.868541 C 194.252391 25.49457 193.550525 23.168384 192.151806 21.894998 C 190.753087 20.621613 188.747755 19.979906 186.13581 19.979906 L 184.035224 19.979906 L 171.140939 66.393319 L 173.427017 66.393319 C 176.349789 66.393319 178.811334 65.781692 180.816666 64.553426 C 182.837038 63.305107 184.70701 61.014015 186.416556 57.670124 C 188.141142 54.326232 189.920874 49.438235 191.755753 43.001119 Z M 263.792297 9.953246 C 271.813625 9.953246 278.080288 11.848284 282.592285 15.643376 C 287.114309 19.423427 289.375321 24.87793 289.375321 32.016912 C 289.375321 35.390884 288.873988 39.020535 287.861296 42.905866 C 285.951217 50.029808 282.988339 56.075885 278.977674 61.054122 C 274.961997 66.012306 270.184293 69.76729 264.629523 72.319075 C 259.094806 74.865847 253.07881 76.144246 246.581534 76.144246 C 238.620365 76.144246 232.378769 74.254221 227.851731 70.47417 C 223.344747 66.679078 221.088749 61.214548 221.088749 54.080579 C 221.088749 50.831941 221.625175 47.107037 222.698028 42.905866 C 224.547947 35.832057 227.460692 29.8311 231.441276 24.902997 C 235.42186 19.959853 240.164471 16.234949 245.669107 13.733297 C 251.188784 11.211592 257.229847 9.953246 263.792297 9.953246 Z M 262.067711 19.303107 C 260.152619 19.303107 258.43806 20.07516 256.914007 21.614252 C 255.389955 23.138304 253.870916 25.634943 252.361903 29.099154 C 250.872944 32.568379 249.263665 37.386189 247.534066 43.562612 C 245.002335 52.48634 243.733962 58.637697 243.733962 62.011668 C 243.733962 63.981907 244.084895 65.420733 244.781748 66.323132 C 245.483614 67.210491 246.596574 67.651665 248.120626 67.651665 C 250.030705 67.651665 251.750277 66.874598 253.27433 65.320466 C 254.798382 63.751294 256.292354 61.249642 257.751234 57.810497 C 259.230166 54.376366 260.859498 49.623729 262.649257 43.562612 C 265.120829 34.774244 266.359122 28.602834 266.359122 25.04337 C 266.359122 23.007958 266.008189 21.544065 265.306322 20.656706 C 264.609469 19.754306 263.52659 19.303107 262.067711 19.303107 Z M 262.067711 19.303107 " stroke="#ff52b4" stroke-width="3.58251" stroke-opacity="1" stroke-miterlimit="4"/></g><g fill="#1ed5c3" fill-opacity="1"><g transform="translate(1.959688, 190.941013)"><g><path d="M 71.460938 -108.101562 L 57.433594 -105.953125 C 32.675781 -102.160156 5.941406 -98.03125 2.804688 -75.09375 C 2.640625 -74.265625 2.640625 -73.277344 2.640625 -72.453125 C 2.476562 -67.171875 3.796875 -62.054688 6.765625 -58.257812 C 9.738281 -54.132812 14.191406 -51.328125 19.96875 -50.5 C 20.628906 -50.335938 21.453125 -50.335938 22.28125 -50.335938 C 24.261719 -50.335938 25.910156 -51.820312 25.910156 -53.636719 C 26.074219 -55.617188 24.589844 -57.269531 22.609375 -57.269531 L 20.960938 -57.433594 C 17.164062 -57.929688 14.359375 -59.742188 12.378906 -62.382812 C 10.398438 -65.023438 9.40625 -68.492188 9.570312 -72.121094 C 9.570312 -72.78125 9.570312 -73.441406 9.738281 -74.101562 C 12.210938 -91.925781 36.472656 -95.722656 58.589844 -99.1875 C 61.890625 -99.683594 65.355469 -100.179688 68.65625 -100.839844 C 65.191406 -91.429688 61.890625 -80.867188 59.082031 -71.625 C 52.8125 -51.328125 50.335938 -44.066406 47.199219 -35.976562 C 45.21875 -31.191406 43.074219 -26.570312 40.597656 -22.445312 C 33.007812 -28.882812 25.25 -33.171875 18.152344 -33.171875 C 8.582031 -33.171875 0.660156 -26.570312 0 -15.019531 C 0 -5.28125 5.777344 0 17.164062 0.824219 C 25.910156 0.824219 34.65625 -3.464844 40.433594 -10.230469 C 40.929688 -10.726562 41.425781 -11.386719 41.917969 -12.046875 C 46.046875 -8.417969 50.171875 -4.125 54.460938 0 C 68.820312 14.359375 85.160156 31.355469 102.652344 31.355469 C 112.554688 31.355469 123.449219 27.230469 127.574219 17.988281 C 127.738281 17.492188 127.90625 17 127.90625 16.667969 C 127.90625 15.347656 126.75 13.039062 124.4375 13.039062 C 123.117188 13.039062 121.796875 13.863281 121.304688 15.183594 C 118.664062 20.960938 111.070312 24.261719 102.820312 24.261719 C 87.800781 24.261719 73.113281 8.746094 59.414062 -4.949219 C 54.792969 -9.40625 50.335938 -13.863281 45.878906 -17.988281 C 48.851562 -22.609375 51.328125 -27.726562 53.636719 -33.335938 C 56.773438 -41.09375 60.402344 -52.152344 65.851562 -69.480469 C 68.984375 -80.207031 72.78125 -92.421875 76.742188 -102.324219 C 88.460938 -105.460938 100.34375 -111.730469 100.34375 -119.488281 C 100.34375 -124.769531 96.382812 -128.398438 90.605469 -128.398438 C 82.1875 -128.398438 75.09375 -117.671875 71.460938 -108.101562 Z M 80.042969 -110.574219 C 82.683594 -116.1875 86.976562 -121.796875 90.605469 -121.796875 C 91.925781 -121.796875 92.917969 -120.808594 92.917969 -119.488281 C 92.917969 -116.847656 86.976562 -112.0625 80.042969 -110.574219 Z M 35.152344 -14.6875 C 30.695312 -9.570312 23.765625 -6.105469 17.164062 -6.105469 C 11.550781 -6.105469 6.929688 -8.582031 6.929688 -15.019531 C 7.261719 -21.949219 12.210938 -26.242188 17.988281 -26.242188 C 23.601562 -26.242188 29.871094 -22.28125 36.804688 -16.667969 C 36.144531 -16.007812 35.648438 -15.347656 35.152344 -14.6875 Z M 35.152344 -14.6875 "/></g></g></g><g fill="#1ed5c3" fill-opacity="1"><g transform="translate(85.798184, 190.941013)"><g><path d="M 26.902344 -86.480469 C 30.035156 -86.480469 32.511719 -88.957031 32.511719 -92.089844 C 32.511719 -95.226562 30.035156 -97.703125 26.902344 -97.703125 C 23.765625 -97.703125 21.125 -95.226562 21.125 -92.089844 C 21.125 -88.957031 23.765625 -86.480469 26.902344 -86.480469 Z M 37.792969 -39.277344 C 37.296875 -39.445312 36.96875 -39.609375 36.472656 -39.609375 C 35.152344 -39.609375 33.832031 -38.785156 33.171875 -37.464844 C 27.066406 -23.929688 19.472656 -6.929688 9.242188 -6.929688 C 5.777344 -6.929688 4.289062 -9.078125 4.289062 -13.863281 C 4.289062 -20.960938 7.261719 -28.550781 23.269531 -73.605469 C 24.261719 -76.414062 22.113281 -78.0625 19.96875 -78.0625 C 18.648438 -78.0625 17.328125 -77.238281 16.832031 -75.753906 C 9.570312 -56.9375 -2.144531 -26.734375 -2.640625 -13.863281 C -2.96875 -6.269531 1.320312 0 9.242188 0 C 23.105469 0 31.6875 -16.832031 39.609375 -34.65625 C 39.773438 -35.152344 39.9375 -35.648438 39.9375 -36.144531 C 39.9375 -37.464844 39.113281 -38.785156 37.792969 -39.277344 Z M 37.792969 -39.277344 "/></g></g></g><g fill="#1ed5c3" fill-opacity="1"><g transform="translate(116.16489, 190.941013)"><g><path d="M 54.460938 -29.210938 C 54.296875 -40.433594 49.839844 -46.210938 41.257812 -62.054688 C 46.375 -67.832031 50.5 -75.09375 50.5 -81.695312 C 50.171875 -86.480469 47.367188 -90.277344 42.578125 -90.277344 C 35.8125 -90.277344 30.53125 -83.015625 30.53125 -74.433594 C 30.53125 -70.636719 31.523438 -67.003906 33.007812 -63.539062 C 31.027344 -61.558594 29.375 -59.742188 27.394531 -57.433594 C 26.902344 -56.773438 26.570312 -55.949219 26.570312 -55.289062 C 26.570312 -54.296875 26.902344 -53.140625 27.726562 -52.480469 C 28.386719 -51.820312 29.375 -51.65625 30.203125 -51.65625 C 31.191406 -51.65625 32.183594 -52.152344 32.84375 -52.976562 C 33.832031 -54.296875 34.988281 -55.617188 36.144531 -56.773438 C 44.890625 -41.425781 47.367188 -36.636719 47.53125 -29.375 C 47.199219 -15.679688 37.628906 -6.929688 24.261719 -6.929688 C 14.6875 -6.929688 6.269531 -14.027344 6.269531 -24.09375 C 6.929688 -34.164062 12.871094 -41.753906 21.949219 -41.753906 C 26.242188 -41.753906 30.367188 -37.628906 30.695312 -32.015625 C 30.695312 -30.035156 32.183594 -28.550781 34.164062 -28.550781 C 36.144531 -28.550781 37.628906 -30.035156 37.628906 -32.015625 C 37.296875 -41.09375 30.367188 -48.6875 21.785156 -48.6875 C 8.582031 -48.6875 0.328125 -38.949219 -0.660156 -24.09375 C -0.660156 -10.726562 10.5625 0 24.261719 0 C 40.929688 0 54.132812 -11.386719 54.460938 -29.210938 Z M 38.289062 -69.316406 C 37.792969 -71.132812 37.464844 -72.78125 37.464844 -74.597656 C 37.464844 -76.90625 37.957031 -79.878906 39.9375 -81.859375 C 41.589844 -83.507812 43.40625 -84.003906 43.40625 -81.695312 C 43.40625 -78.0625 40.929688 -72.945312 38.289062 -69.316406 Z M 38.289062 -69.316406 "/></g></g></g><g fill="#1ed5c3" fill-opacity="1"><g transform="translate(179.703909, 190.941013)"><g><path d="M 41.917969 -39.277344 C 41.425781 -39.445312 40.929688 -39.609375 40.433594 -39.609375 C 39.113281 -39.609375 37.792969 -38.785156 37.132812 -37.628906 C 29.375 -20.628906 21.453125 -6.929688 9.570312 -6.929688 C 6.269531 -6.929688 4.289062 -9.40625 4.289062 -13.863281 C 4.289062 -18.648438 6.4375 -26.242188 13.203125 -45.386719 C 18.648438 -60.734375 21.453125 -68.324219 22.445312 -71.460938 L 35.976562 -71.460938 C 37.957031 -71.460938 39.445312 -72.945312 39.445312 -74.925781 C 39.445312 -76.742188 37.957031 -78.394531 35.976562 -78.394531 L 24.921875 -78.394531 C 26.074219 -81.527344 33.171875 -101.664062 32.675781 -100.671875 C 33.503906 -102.820312 31.851562 -105.292969 29.375 -105.292969 C 27.890625 -105.292969 26.570312 -104.46875 26.074219 -102.984375 C 25.910156 -102.324219 17.824219 -79.054688 17.492188 -78.394531 L 4.785156 -78.394531 C 2.804688 -78.394531 1.320312 -76.742188 1.320312 -74.925781 C 1.320312 -72.945312 2.804688 -71.460938 4.785156 -71.460938 L 15.183594 -71.460938 L 6.765625 -47.859375 C 1.484375 -34.328125 -2.640625 -19.96875 -2.640625 -13.863281 C -2.640625 -5.941406 1.648438 0 9.570312 0 C 24.753906 0 33.996094 -14.027344 43.570312 -34.65625 C 43.734375 -35.152344 43.898438 -35.648438 43.898438 -36.144531 C 43.898438 -37.464844 43.074219 -38.617188 41.917969 -39.277344 Z M 41.917969 -39.277344 "/></g></g></g><g fill="#d9d9d9" fill-opacity="1"><g transform="translate(68.799999, 11.45548)"><g><path d="M 5.066406 -1.183594 L 6.246094 -1.183594 L 6.246094 -1.773438 C 6.246094 -2.226562 6.070312 -2.640625 5.789062 -2.953125 C 6.070312 -3.265625 6.246094 -3.679688 6.246094 -4.136719 C 6.246094 -5.113281 5.453125 -5.910156 4.472656 -5.910156 L 1.511719 -5.910156 L 1.511719 -4.726562 L 4.472656 -4.726562 C 4.804688 -4.726562 5.066406 -4.464844 5.066406 -4.136719 C 5.066406 -3.808594 4.804688 -3.546875 4.472656 -3.546875 L 2.101562 -3.546875 L 2.101562 -2.363281 L 4.472656 -2.363281 C 4.804688 -2.363281 5.066406 -2.101562 5.066406 -1.773438 Z M 2.101562 0 L 5.066406 0 L 5.066406 -1.183594 L 2.101562 -1.183594 C 1.78125 -1.183594 1.511719 -1.445312 1.511719 -1.773438 L 1.511719 -4.726562 L 0.335938 -4.726562 L 0.335938 -1.773438 C 0.335938 -0.800781 1.132812 0 2.101562 0 Z M 2.101562 0 "/></g></g></g><g fill="#d9d9d9" fill-opacity="1"><g transform="translate(75.383886, 11.45548)"><g><path d="M 2.109375 -1.773438 L 4.472656 -1.773438 L 4.472656 -2.953125 L 2.109375 -2.953125 C 1.78125 -2.953125 1.519531 -3.214844 1.519531 -3.546875 L 1.519531 -5.910156 L 0.335938 -5.910156 L 0.335938 -3.546875 C 0.335938 -2.566406 1.132812 -1.773438 2.109375 -1.773438 Z M 0.929688 0 L 4.472656 0 C 5.453125 0 6.246094 -0.792969 6.246094 -1.773438 L 6.246094 -5.910156 L 5.066406 -5.910156 L 5.066406 -1.773438 C 5.066406 -1.445312 4.804688 -1.183594 4.472656 -1.183594 L 0.929688 -1.183594 Z M 0.929688 0 "/></g></g></g><g fill="#d9d9d9" fill-opacity="1"><g transform="translate(81.967773, 11.45548)"><g><path d="M 0.335938 -3.375 L 1.519531 -3.375 L 1.519531 -4.558594 L 0.335938 -4.558594 Z M 0.335938 -1.351562 L 1.519531 -1.351562 L 1.519531 -2.53125 L 0.335938 -2.53125 Z M 0.335938 -1.351562 "/></g></g></g><g fill="#d9d9d9" fill-opacity="1"><g transform="translate(83.824765, 11.45548)"><g/></g></g><g fill="#d9d9d9" fill-opacity="1"><g transform="translate(87.201118, 11.45548)"><g><path d="M 5.066406 -4.136719 L 6.246094 -4.136719 C 6.246094 -5.113281 5.453125 -5.910156 4.472656 -5.910156 L 1.519531 -5.910156 L 1.519531 -4.726562 L 4.472656 -4.726562 C 4.804688 -4.726562 5.066406 -4.464844 5.066406 -4.136719 Z M 5.066406 -1.183594 L 6.246094 -1.183594 L 6.246094 -1.773438 C 6.246094 -2.75 5.453125 -3.546875 4.472656 -3.546875 L 2.109375 -3.546875 C 1.789062 -3.546875 1.519531 -3.808594 1.519531 -4.136719 L 1.519531 -4.726562 L 0.335938 -4.726562 L 0.335938 -4.136719 C 0.335938 -3.164062 1.140625 -2.363281 2.109375 -2.363281 L 4.472656 -2.363281 C 4.804688 -2.363281 5.066406 -2.101562 5.066406 -1.773438 Z M 2.109375 0 L 5.066406 0 L 5.066406 -1.183594 L 2.109375 -1.183594 C 1.789062 -1.183594 1.519531 -1.445312 1.519531 -1.773438 L 0.335938 -1.773438 C 0.335938 -0.800781 1.140625 0 2.109375 0 Z M 2.109375 0 "/></g></g></g><g fill="#d9d9d9" fill-opacity="1"><g transform="translate(93.785005, 11.45548)"><g><path d="M 5.066406 0 L 6.246094 0 L 6.246094 -4.136719 C 6.246094 -5.113281 5.445312 -5.910156 4.464844 -5.910156 L 1.511719 -5.910156 L 1.511719 -4.726562 L 4.464844 -4.726562 C 4.792969 -4.726562 5.066406 -4.464844 5.066406 -4.136719 Z M 0.335938 0 L 1.511719 0 L 1.511719 -1.773438 L 4.472656 -1.773438 L 4.472656 -2.953125 L 1.511719 -2.953125 L 1.511719 -4.726562 L 0.335938 -4.726562 Z M 0.335938 0 "/></g></g></g><g fill="#d9d9d9" fill-opacity="1"><g transform="translate(100.368892, 11.45548)"><g><path d="M 3.882812 0 C 4.921875 0 5.15625 -1.359375 5.359375 -2.488281 C 5.527344 -3.476562 5.78125 -4.726562 6.246094 -4.726562 L 6.246094 -5.910156 C 4.886719 -5.910156 4.515625 -4.441406 4.195312 -2.699219 C 4.128906 -2.296875 4.007812 -1.65625 3.882812 -1.351562 C 3.789062 -1.570312 3.636719 -2.304688 3.570312 -2.699219 C 3.25 -4.421875 2.894531 -5.910156 1.519531 -5.910156 L 1.519531 -4.726562 C 2 -4.726562 2.226562 -3.484375 2.40625 -2.488281 C 2.609375 -1.402344 2.835938 0 3.882812 0 Z M 0.335938 0 L 1.519531 0 L 1.519531 -4.726562 L 0.335938 -4.726562 Z M 6.246094 0 L 7.429688 0 L 7.429688 -4.726562 L 6.246094 -4.726562 Z M 6.246094 0 "/></g></g></g><g fill="#d9d9d9" fill-opacity="1"><g transform="translate(108.134511, 11.45548)"><g><path d="M 2.109375 0 L 5.066406 0 L 5.066406 -1.183594 L 2.109375 -1.183594 C 1.78125 -1.183594 1.519531 -1.445312 1.519531 -1.773438 L 1.519531 -5.910156 L 0.335938 -5.910156 L 0.335938 -1.773438 C 0.335938 -0.792969 1.132812 0 2.109375 0 Z M 5.066406 -1.183594 L 6.246094 -1.183594 L 6.246094 -5.910156 L 5.066406 -5.910156 Z M 5.066406 -1.183594 "/></g></g></g><g fill="#d9d9d9" fill-opacity="1"><g transform="translate(114.718397, 11.45548)"><g><path d="M 1.519531 -4.726562 L 6.246094 -4.726562 L 6.246094 -5.910156 L 1.519531 -5.910156 Z M 2.109375 0 L 6.246094 0 L 6.246094 -1.183594 L 2.109375 -1.183594 C 1.789062 -1.183594 1.519531 -1.445312 1.519531 -1.773438 L 1.519531 -4.726562 L 0.335938 -4.726562 L 0.335938 -1.773438 C 0.335938 -0.800781 1.140625 0 2.109375 0 Z M 2.101562 -2.363281 L 5.65625 -2.363281 L 5.65625 -3.546875 L 2.101562 -3.546875 Z M 2.101562 -2.363281 "/></g></g></g><g fill="#d9d9d9" fill-opacity="1"><g transform="translate(121.302284, 11.45548)"><g><path d="M 2.109375 0 L 5.738281 0 L 5.738281 -1.183594 L 2.109375 -1.183594 C 1.78125 -1.183594 1.519531 -1.445312 1.519531 -1.773438 L 1.519531 -5.910156 L 0.335938 -5.910156 L 0.335938 -1.773438 C 0.335938 -0.792969 1.132812 0 2.109375 0 Z M 2.109375 0 "/></g></g></g><g fill="#d9d9d9" fill-opacity="1"><g transform="translate(127.379721, 11.45548)"><g/></g></g><g fill="#d9d9d9" fill-opacity="1"><g transform="translate(130.756074, 11.45548)"><g><path d="M 2.109375 0 L 5.738281 0 L 5.738281 -1.183594 L 2.109375 -1.183594 C 1.78125 -1.183594 1.519531 -1.445312 1.519531 -1.773438 L 1.519531 -5.910156 L 0.335938 -5.910156 L 0.335938 -1.773438 C 0.335938 -0.792969 1.132812 0 2.109375 0 Z M 2.109375 0 "/></g></g></g><g fill="#d9d9d9" fill-opacity="1"><g transform="translate(136.833511, 11.45548)"><g><path d="M 2.109375 0 L 5.066406 0 L 5.066406 -1.183594 L 2.109375 -1.183594 C 1.78125 -1.183594 1.519531 -1.445312 1.519531 -1.773438 L 1.519531 -5.910156 L 0.335938 -5.910156 L 0.335938 -1.773438 C 0.335938 -0.792969 1.132812 0 2.109375 0 Z M 5.066406 -1.183594 L 6.246094 -1.183594 L 6.246094 -5.910156 L 5.066406 -5.910156 Z M 5.066406 -1.183594 "/></g></g></g><g fill="#d9d9d9" fill-opacity="1"><g transform="translate(143.417397, 11.45548)"><g><path d="M 0.335938 -4.726562 L 5.738281 -4.726562 L 5.738281 -5.910156 L 0.335938 -5.910156 Z M 4.21875 0 L 5.738281 0 L 5.738281 -1.183594 L 4.21875 -1.183594 C 3.898438 -1.183594 3.628906 -1.445312 3.628906 -1.773438 L 3.628906 -4.136719 L 2.457031 -4.136719 L 2.457031 -1.773438 C 2.457031 -0.800781 3.25 0 4.21875 0 Z M 0.335938 0 L 2.449219 0 L 2.449219 -1.183594 L 0.335938 -1.183594 Z M 0.335938 0 "/></g></g></g><g fill="#d9d9d9" fill-opacity="1"><g transform="translate(149.494834, 11.45548)"><g><path d="M 0.589844 -4.726562 L 5.074219 -4.726562 L 5.074219 -5.910156 L 0.589844 -5.910156 Z M 0.335938 -1.183594 L 1.511719 -1.183594 C 1.511719 -1.59375 2.625 -1.882812 3.917969 -2.464844 C 4.929688 -2.921875 6.246094 -3.597656 6.246094 -4.726562 L 5.074219 -4.726562 C 5.074219 -4.160156 3.859375 -3.6875 2.9375 -3.273438 C 1.722656 -2.726562 0.335938 -2.3125 0.335938 -1.183594 Z M 1.511719 0 L 5.992188 0 L 5.992188 -1.183594 L 1.511719 -1.183594 Z M 1.511719 0 "/></g></g></g></svg>